<svg width="640" height="520" viewBox="0 0 640 520" xmlns="http://www.w3.org/2000/svg">
  <defs>
    <linearGradient id="boxGradient" x1="0" y1="0" x2="1" y2="1">
      <stop offset="0%" stop-color="#fef3f2"/>
      <stop offset="100%" stop-color="#fde2e1"/>
    </linearGradient>
    <linearGradient id="subGradient" x1="0" y1="0" x2="1" y2="1">
      <stop offset="0%" stop-color="#fff7ed"/>
      <stop offset="100%" stop-color="#fee2e2"/>
    </linearGradient>
    <style>
      .box { fill: url(#boxGradient); stroke: #f59e0b; stroke-width: 2; rx: 12; }
      .small-box { fill: url(#subGradient); stroke: #f59e0b; stroke-width: 1.6; rx: 10; }
      .text { font-family: 'Segoe UI', Arial, sans-serif; font-size: 16px; fill: #9a3412; }
      .small-text { font-size: 14px; fill: #92400e; }
      .annotation { font-size: 12px; fill: #6b7280; }
      .arrow { stroke: #f97316; stroke-width: 2.5; marker-end: url(#arrowHead); }
    </style>
    <marker id="arrowHead" markerWidth="10" markerHeight="10" refX="6" refY="3" orient="auto">
      <path d="M0,0 L6,3 L0,6 z" fill="#f97316"/>
    </marker>
  </defs>

  <rect x="200" y="20" width="240" height="60" class="box"/>
  <text x="320" y="55" text-anchor="middle" class="text">render</text>

  <rect x="200" y="100" width="240" height="60" class="box"/>
  <text x="320" y="135" text-anchor="middle" class="text">_renderSubtreeIntoContainer</text>

  <rect x="200" y="180" width="240" height="60" class="box"/>
  <text x="320" y="215" text-anchor="middle" class="text">_renderNewRootComponent</text>

  <rect x="200" y="260" width="240" height="60" class="box"/>
  <text x="320" y="295" text-anchor="middle" class="text">batchedMountComponentIntoNode</text>

  <rect x="200" y="340" width="240" height="60" class="box"/>
  <text x="320" y="375" text-anchor="middle" class="text">mountComponentIntoNode</text>

  <rect x="200" y="420" width="240" height="60" class="box"/>
  <text x="320" y="455" text-anchor="middle" class="text">_mountImageIntoNode</text>

  <line x1="320" y1="80" x2="320" y2="100" class="arrow"/>
  <line x1="320" y1="160" x2="320" y2="180" class="arrow"/>
  <line x1="320" y1="240" x2="320" y2="260" class="arrow"/>
  <line x1="320" y1="320" x2="320" y2="340" class="arrow"/>
  <line x1="320" y1="400" x2="320" y2="420" class="arrow"/>

  <text x="470" y="150" class="annotation">参数处理</text>
  <text x="470" y="265" class="annotation">批处理 / 事务</text>
  <text x="470" y="365" class="annotation">生成并渲染 HTML</text>

  <rect x="30" y="280" width="150" height="36" class="small-box"/>
  <text x="105" y="303" text-anchor="middle" class="small-text">ReactDOMEmptyComponent</text>

  <rect x="30" y="326" width="150" height="36" class="small-box"/>
  <text x="105" y="349" text-anchor="middle" class="small-text">ReactDOMTextComponent</text>

  <rect x="30" y="372" width="150" height="36" class="small-box"/>
  <text x="105" y="395" text-anchor="middle" class="small-text">ReactDOMComponent</text>

  <rect x="30" y="418" width="150" height="36" class="small-box"/>
  <text x="105" y="441" text-anchor="middle" class="small-text">ReactCompositeComponent</text>

  <line x1="180" y1="298" x2="200" y2="298" class="arrow"/>
  <line x1="180" y1="344" x2="200" y2="344" class="arrow"/>
  <line x1="180" y1="390" x2="200" y2="390" class="arrow"/>
  <line x1="180" y1="436" x2="200" y2="436" class="arrow"/>

  <rect x="160" y="490" width="130" height="30" class="small-box"/>
  <text x="225" y="510" text-anchor="middle" class="small-text">IE / Edge 逐个渲染</text>

  <rect x="350" y="490" width="150" height="30" class="small-box"/>
  <text x="425" y="510" text-anchor="middle" class="small-text">其他浏览器一次渲染</text>

  <line x1="320" y1="480" x2="225" y2="490" class="arrow"/>
  <line x1="320" y1="480" x2="425" y2="490" class="arrow"/>
</svg>

